<svg width="138" height="143" viewBox="0 0 138 143" fill="none" xmlns="http://www.w3.org/2000/svg">
<path d="M138 0L125.428 128.685L68.9155 143L12.5588 128.705L0 0H138Z" fill="#264DE4"/>
<path d="M114.953 126.817L126 11H68V139L114.953 126.817Z" fill="#2965F1"/>
<path d="M27 62L28.5789 77H68V62H27Z" fill="#EBEBEB"/>
<path d="M68 121.978V104.466L67.9221 104.486L48.1172 99.4242L46.8512 86H37.2276H29L31.4914 112.428L67.9182 122L68 121.978Z" fill="#EBEBEB"/>
<path d="M90.1206 78.2013L88.0355 99.7314L68 104.729V122L104.827 112.568L105.097 109.763L109.319 66.0584L109.757 61.6006L113 28H68V44.6011H93.313L91.6785 61.6006H68V78.2013H90.1206Z" fill="white"/>
</svg>
