<svg width="200" height="35" viewBox="0 0 200 35" fill="none" xmlns="http://www.w3.org/2000/svg">
<g clip-path="url(#clip0_229_219)">
<path fill-rule="evenodd" clip-rule="evenodd" d="M0 33.4801V1.3208H22.2545V7.55251H7.55556V13.427H21.2702V19.655H7.55556V27.2393H23.5187V33.4801H0Z" fill="black"/>
<path fill-rule="evenodd" clip-rule="evenodd" d="M37.3269 16.1757L27.3476 1.3208H36.5173L42.0395 11.1199L47.5137 1.3208H56.5562L46.6173 16.1757L58.2163 33.4801H48.9597L41.992 21.4631L34.8244 33.4801H25.688L37.3269 16.1757Z" fill="black"/>
<path fill-rule="evenodd" clip-rule="evenodd" d="M60.5518 33.4801H68.1952V23.0875H74.0972C84.4528 23.0875 86.7023 16.4932 86.7023 12.206C86.7023 5.83357 83.6901 1.3208 75.5381 1.3208H60.5518V33.4801ZM68.1013 7.28231H74.2583C77.7078 7.28231 79.1442 9.04369 79.1442 12.2527C79.1442 14.7286 77.9129 17.127 74.4735 17.127H68.1013V7.28231Z" fill="black"/>
<path fill-rule="evenodd" clip-rule="evenodd" d="M88.7417 33.4801H96.2998V21.9127H101.098L107.041 33.4801H115.494L108.568 20.559C112.349 19.3848 114.812 16.0409 114.812 11.8837C114.812 4.66307 110.654 1.3208 103.863 1.3208H88.7417V33.4801ZM96.2998 7.28231H103.22C105.642 7.32636 107.256 8.63598 107.256 11.6183C107.256 14.5959 105.642 15.9028 103.22 15.9522H96.2998V7.28231Z" fill="black"/>
<path fill-rule="evenodd" clip-rule="evenodd" d="M117.812 33.4801V1.3208H140.061V7.55251H125.369V13.427H139.084V19.655H125.369V27.2393H141.331V33.4801H117.812Z" fill="black"/>
<path fill-rule="evenodd" clip-rule="evenodd" d="M148.993 23.8554C151.624 26.3866 154.133 27.8729 157.742 27.8729C159.735 27.8729 163.39 26.9737 163.39 24.1702C163.39 22.5442 162.237 21.7336 159.989 21.3254L153.705 20.2424C148.096 19.2938 145.045 16.1341 145.045 11.3952C145.045 3.62346 150.947 0.416016 157.395 0.416016C162.408 0.416016 167.332 2.58672 170.733 6.60636L165.002 10.9843C163.009 8.41233 160.077 6.92222 156.892 6.92222C155.152 6.92222 152.601 8.0954 152.601 10.1737C152.601 11.8835 153.92 12.7457 156.804 13.2447L159.696 13.7384C165.72 14.7724 170.694 16.7632 170.694 22.9073C170.694 32.5705 162.491 34.3791 156.843 34.3791C151.712 34.3791 147.334 32.6204 143.218 27.831L148.993 23.8554Z" fill="black"/>
<path fill-rule="evenodd" clip-rule="evenodd" d="M178.081 23.8554C180.71 26.3866 183.216 27.8729 186.822 27.8729C188.825 27.8729 192.47 26.9737 192.47 24.1702C192.47 22.5442 191.326 21.7336 189.069 21.3254L182.791 20.2424C177.182 19.2938 174.124 16.1341 174.124 11.3952C174.124 3.62346 180.035 0.416016 186.489 0.416016C191.493 0.416016 196.422 2.58672 199.818 6.60636L194.082 10.9843C192.088 8.41233 189.157 6.92222 185.972 6.92222C184.237 6.92222 181.687 8.0954 181.687 10.1737C181.687 11.8835 183.001 12.7457 185.894 13.2447L188.776 13.7384C194.805 14.7724 199.774 16.7632 199.774 22.9073C199.774 32.5705 191.575 34.3791 185.932 34.3791C180.793 34.3791 176.42 32.6204 172.307 27.831L178.081 23.8554Z" fill="black"/>
</g>
<defs>
<clipPath id="clip0_229_219">
<rect width="200" height="35" fill="white"/>
</clipPath>
</defs>
</svg>
