<svg width="137" height="142" viewBox="0 0 137 142" fill="none" xmlns="http://www.w3.org/2000/svg">
<path d="M127 0H10C4.47715 0 0 4.47715 0 10V132C0 137.523 4.47715 142 10 142H127C132.523 142 137 137.523 137 132V10C137 4.47715 132.523 0 127 0Z" fill="#F7DF1E"/>
<path d="M92.0753 116.987C95.2845 121.908 99.4598 125.524 106.844 125.524C113.048 125.524 117.011 122.613 117.011 118.59C117.011 113.77 112.939 112.063 106.111 109.258L102.368 107.75C91.5644 103.429 84.3872 98.0146 84.3872 86.5691C84.3872 76.026 92.9427 68 106.313 68C115.832 68 122.676 71.1107 127.607 79.2555L115.949 86.2842C113.382 81.9625 110.613 80.2599 106.313 80.2599C101.928 80.2599 99.1488 82.8719 99.1488 86.2842C99.1488 90.5014 101.931 92.2088 108.354 94.8208L112.097 96.3263C124.818 101.448 132 106.67 132 118.41C132 131.066 121.411 138 107.191 138C93.2866 138 84.3038 131.779 79.9084 123.624L92.0753 116.987ZM39.1871 118.206C41.539 122.124 43.6785 125.436 48.8224 125.436C53.7412 125.436 56.8443 123.629 56.8443 116.603V68.8026H71.8157V116.793C71.8157 131.349 62.7267 137.974 49.4597 137.974C37.4724 137.974 30.5304 132.149 27 125.133L39.1871 118.206Z" fill="black"/>
</svg>
