<svg width="241" height="60" viewBox="0 0 241 60" fill="none" xmlns="http://www.w3.org/2000/svg">
<path d="M29.1208 24.068C25.8045 10.56 18.8926 6.96399 17.1294 4.42199C16.4023 3.30218 15.7583 2.13818 15.2016 0.937988C15.1084 2.13799 14.9373 2.89399 13.8326 3.80399C11.6146 5.62999 2.19429 12.718 1.40151 28.066C0.662875 42.376 12.7951 51.2 14.398 52.112C15.6305 52.672 17.1316 52.124 17.8637 51.61C23.7121 47.904 31.7028 38.024 29.1273 24.068" fill="#10AA50"/>
<path d="M15.7039 44.4922C15.3985 48.0342 15.1798 50.0922 14.4043 52.1162C14.4043 52.1162 14.9133 55.4882 15.2707 59.0602H16.5357C16.8375 56.5448 17.2982 54.0479 17.9155 51.5822C16.278 50.8382 15.7668 47.6002 15.7039 44.4922Z" fill="#B8C4C2"/>
<path d="M17.9135 51.5842C16.2587 50.8782 15.78 47.5722 15.7063 44.4922C16.1156 39.4115 16.2349 34.3144 16.0637 29.2222C15.9771 26.5502 16.1049 4.47419 15.3511 1.24219C15.8667 2.33683 16.4608 3.39852 17.1294 4.42019C18.8926 6.96419 25.8067 10.5602 29.1208 24.0682C31.7028 38.0002 23.7555 47.8542 17.9135 51.5842Z" fill="#12924F"/>
<path d="M236.038 46.7C235.329 46.6999 234.636 46.5064 234.046 46.1438C233.457 45.7812 232.996 45.2657 232.723 44.6621C232.449 44.0585 232.375 43.3937 232.51 42.7514C232.644 42.109 232.982 41.5178 233.479 41.052C233.977 40.5862 234.613 40.2666 235.306 40.1334C236 40.0003 236.721 40.0594 237.379 40.3035C238.036 40.5476 238.601 40.9657 239.001 41.5053C239.402 42.0448 239.621 42.6818 239.631 43.336C239.644 43.7771 239.56 44.2161 239.385 44.6265C239.209 45.037 238.946 45.4106 238.61 45.7247C238.275 46.0389 237.874 46.2872 237.432 46.4548C236.99 46.6224 236.515 46.7058 236.038 46.7ZM236.038 40.364C235.39 40.36 234.756 40.5336 234.215 40.8626C233.675 41.1917 233.252 41.6615 233.001 42.2125C232.75 42.7635 232.682 43.3709 232.805 43.9578C232.928 44.5448 233.237 45.0847 233.692 45.5094C234.148 45.9341 234.73 46.2243 235.364 46.3434C235.999 46.4625 236.657 46.405 237.256 46.1782C237.856 45.9515 238.368 45.5657 238.73 45.0697C239.091 44.5737 239.285 43.9898 239.287 43.392C239.295 42.9945 239.217 42.5996 239.057 42.2306C238.897 41.8615 238.659 41.5258 238.356 41.2435C238.053 40.9611 237.691 40.7378 237.293 40.5867C236.895 40.4356 236.468 40.3599 236.038 40.364ZM236.904 45.48L235.977 43.634H235.23V45.48H234.686V41.28H236.027C237.025 41.28 237.441 41.68 237.441 42.454C237.441 43.07 237.127 43.454 236.542 43.572L237.5 45.474L236.904 45.48ZM235.251 43.2H236.038C236.674 43.2 236.917 43 236.917 42.464C236.917 41.928 236.685 41.746 235.968 41.746H235.251V43.2Z" fill="black"/>
<path d="M182.555 43.676C183.527 44.394 185.47 44.69 187.184 44.69C189.404 44.69 191.581 44.31 193.708 42.536C195.874 40.718 197.364 37.936 197.364 33.494C197.364 29.226 195.605 25.762 191.997 23.734C189.961 22.552 187.322 22.086 184.314 22.086C183.447 22.086 182.555 22.128 182.048 22.34C181.84 22.4915 181.693 22.7026 181.63 22.94C181.539 23.7 181.539 29.488 181.539 32.91C181.539 36.418 181.539 41.31 181.63 41.91C181.678 42.418 181.955 43.31 182.555 43.684M173.319 20.186C174.105 20.186 177.094 20.312 178.485 20.312C181.084 20.312 182.88 20.186 187.738 20.186C191.811 20.186 195.237 21.2 197.687 23.142C200.65 25.51 202.236 28.804 202.236 32.818C202.236 38.522 199.42 41.818 196.589 43.676C193.773 45.62 190.11 46.718 184.892 46.718C182.115 46.718 177.348 46.634 173.369 46.592H173.286C173.1 46.254 173.626 44.936 173.951 44.902C175.034 44.79 175.32 44.75 175.818 44.56C176.659 44.242 176.856 43.846 176.949 42.452C177.088 39.832 177.042 36.706 177.042 33.156C177.042 30.622 177.088 25.678 176.997 24.114C176.856 22.806 176.258 22.468 175.047 22.214C174.189 22.0456 173.321 21.9188 172.448 21.834C172.357 21.58 173.067 20.434 173.299 20.186" fill="black"/>
<path d="M213.705 22.3298C213.521 22.3718 213.289 22.7958 213.289 23.0058C213.242 24.5278 213.196 28.4978 213.196 31.2438C213.208 31.2963 213.236 31.3444 213.277 31.3821C213.319 31.4198 213.371 31.4454 213.428 31.4558C214.028 31.4978 215.51 31.5418 216.759 31.5418C218.518 31.5418 219.536 31.3298 220.091 31.0758C221.572 30.3998 222.257 28.9198 222.257 27.3158C222.257 23.6398 219.48 22.2458 215.362 22.2458C214.806 22.2393 214.249 22.2673 213.697 22.3298M224.202 39.2298C224.202 35.5118 221.239 33.3998 215.824 33.3998C215.594 33.3998 213.874 33.3578 213.465 33.4418C213.326 33.4838 213.188 33.5678 213.188 33.6538C213.188 36.3158 213.14 40.5818 213.281 42.2718C213.374 42.9898 213.931 44.0038 214.622 44.2998C215.362 44.6798 217.028 44.7638 218.185 44.7638C221.378 44.7638 224.202 43.1178 224.202 39.2298ZM205.344 20.2598C205.762 20.2598 206.993 20.3858 210.14 20.3858C213.101 20.3858 215.507 20.3018 218.371 20.3018C221.934 20.3018 226.838 21.4858 226.838 26.3858C226.838 28.7858 224.988 30.7378 222.582 31.6678C222.443 31.7098 222.443 31.7938 222.582 31.8358C226.006 32.6358 229.013 34.5818 229.013 38.2998C229.013 41.9338 226.561 44.2158 222.998 45.6518C220.832 46.5398 218.139 46.8338 215.416 46.8338C213.335 46.8338 207.755 46.6338 204.653 46.6658C204.328 46.5398 204.95 45.1858 205.227 44.9758C205.938 44.9556 206.643 44.8535 207.326 44.6718C208.435 44.4198 208.567 44.0898 208.706 42.5678C208.799 41.2578 208.799 36.5678 208.799 33.2298C208.799 28.6658 208.847 25.5838 208.799 24.0618C208.754 22.8798 208.29 22.4978 207.411 22.2878C206.717 22.1598 205.561 22.0338 204.636 21.9078C204.404 21.6958 205.117 20.4278 205.346 20.2598" fill="black"/>
<path d="M39.3687 46.6999C39.2495 46.4295 39.2012 46.1369 39.2279 45.8459C39.2175 45.6476 39.2662 45.4505 39.3687 45.2759C39.9672 45.1962 40.5602 45.0847 41.1448 44.9419C41.9636 44.7539 42.2712 44.3419 42.3189 43.3779C42.4532 41.0999 42.4618 36.8259 42.4142 33.8219V33.7339C42.4142 33.4099 42.4142 32.9699 41.981 32.6599C41.2195 32.2189 40.3929 31.882 39.5268 31.6599C39.1391 31.5539 38.9246 31.3659 38.9354 31.1459C38.9463 30.9259 39.191 30.6659 39.6957 30.5739C41.0365 30.4479 44.5499 29.6739 45.9297 29.0859C46.0718 29.2569 46.1377 29.4716 46.1138 29.6859C46.1138 29.8179 46.0922 29.9579 46.077 30.1019C46.038 30.5259 45.9947 31.0079 45.9947 31.4879C46.0032 31.5462 46.0291 31.6012 46.0696 31.6466C46.1101 31.6921 46.1635 31.7262 46.2239 31.7451C46.2842 31.764 46.349 31.767 46.4111 31.7537C46.4732 31.7404 46.53 31.7114 46.5752 31.6699C49.2027 29.7679 51.5572 29.0899 52.7637 29.0899C54.75 29.0899 56.2966 29.9659 57.4944 31.7699C57.5219 31.8135 57.561 31.8498 57.608 31.8754C57.6551 31.9009 57.7084 31.9149 57.763 31.9159C57.8126 31.9155 57.8614 31.904 57.9051 31.8824C57.9489 31.8608 57.9863 31.8298 58.0143 31.7919C60.4294 30.0999 62.823 29.0899 64.4259 29.0899C68.2122 29.0899 70.4757 31.7079 70.4757 36.0899C70.4757 37.3499 70.4627 38.9479 70.4497 40.4379C70.4389 41.7459 70.4281 42.9719 70.4281 43.8199C70.4281 44.0199 70.727 44.5959 71.1754 44.7099C71.7299 44.9599 72.5292 45.0879 73.5407 45.2479H73.5797C73.6555 45.4999 73.4952 46.4779 73.3414 46.6779C73.0902 46.6779 72.7436 46.6579 72.3104 46.6379C71.5241 46.6019 70.4454 46.5519 69.1912 46.5519C66.6742 46.5519 65.3594 46.5959 64.1031 46.6719C64.0078 46.3819 63.9753 45.4459 64.0901 45.2499C64.6104 45.1748 65.1254 45.0713 65.6324 44.9399C66.4338 44.6959 66.6656 44.3599 66.7154 43.3779C66.7349 42.6799 66.88 36.5299 66.6223 35.0699C66.384 33.5559 65.1493 31.7839 62.4482 31.7839C61.4453 31.7839 59.8273 32.1699 58.285 33.2499C58.1894 33.3501 58.1356 33.4784 58.1334 33.6119V33.6419C58.3154 34.4299 58.3154 35.3499 58.3154 36.7399C58.3154 37.5399 58.3154 38.3739 58.3045 39.2079C58.2937 40.9039 58.285 42.5039 58.3154 43.7139C58.3154 44.5379 58.8547 44.7359 59.2901 44.8939C59.5262 44.9419 59.7125 44.9839 59.9009 45.0239C60.2627 45.1059 60.6396 45.1899 61.2006 45.2719C61.2836 45.6233 61.2762 45.9877 61.1789 46.3359C61.156 46.4666 61.1003 46.5906 61.0165 46.6979C59.6172 46.6539 58.1811 46.6159 56.1081 46.6159C55.48 46.6159 54.4554 46.6399 53.55 46.6619C52.8157 46.6799 52.1225 46.6979 51.7283 46.6999C51.6217 46.4676 51.5743 46.2158 51.5897 45.9639C51.5675 45.7266 51.6178 45.4883 51.7348 45.2759L52.2915 45.1819C52.7767 45.1019 53.1969 45.0339 53.5911 44.9419C54.2756 44.7419 54.5334 44.3979 54.5832 43.5919C54.7175 41.7119 54.8215 36.2939 54.5334 34.9379C54.0438 32.7619 52.703 31.6579 50.5456 31.6579C49.2828 31.6579 47.6864 32.2199 46.3824 33.1219C46.257 33.2347 46.1582 33.3702 46.0922 33.5199C46.0262 33.6696 45.9945 33.8304 45.999 33.9919C45.999 34.6379 45.999 35.4059 45.999 36.2299C45.999 38.9499 45.9795 42.3359 46.051 43.7999C46.0943 44.2519 46.2676 44.7879 47.1839 44.9839C47.3853 45.0379 47.7319 45.0899 48.1348 45.1519C48.3666 45.1879 48.62 45.2259 48.8821 45.2699C48.9654 45.7489 48.9231 46.2393 48.7586 46.6999C48.3557 46.6999 47.8597 46.6759 47.2922 46.6539C46.4257 46.6179 45.3427 46.5739 44.1189 46.5739C42.6719 46.5739 41.6647 46.6179 40.8568 46.6539C40.3131 46.6779 39.843 46.6979 39.373 46.6999" fill="black"/>
<path d="M85.8199 30.8981C85.0381 30.8831 84.2691 31.0828 83.6105 31.4721C82.0033 32.3741 81.1845 34.1761 81.1845 36.8241C81.1845 41.7801 83.8726 45.2421 87.7217 45.2421C88.7538 45.2723 89.7604 44.9432 90.542 44.3201C91.7246 43.4301 92.3528 41.6101 92.3528 39.0621C92.3528 34.1801 89.7253 30.8981 85.8156 30.8981M86.5564 47.08C79.6033 47.08 77.1274 42.3701 77.1274 37.9641C77.1274 34.8861 78.4899 32.4801 81.178 30.8101C83.0608 29.7338 85.2219 29.144 87.4358 29.1021C92.7405 29.1021 96.4467 32.6241 96.4467 37.6701C96.4467 41.0981 94.9673 43.8061 92.1665 45.4981C90.8214 46.2581 88.4842 47.08 86.5564 47.08Z" fill="black"/>
<path d="M156.608 30.8981C155.824 30.8817 155.053 31.0815 154.394 31.4721C152.787 32.3741 151.968 34.1761 151.968 36.8241C151.968 41.7801 154.656 45.2421 158.505 45.2421C159.54 45.2743 160.55 44.9451 161.334 44.3201C162.517 43.4301 163.143 41.6101 163.143 39.0621C163.143 34.1801 160.517 30.8981 156.608 30.8981ZM157.348 47.08C150.395 47.08 147.919 42.3701 147.919 37.9661C147.919 34.8841 149.282 32.4801 151.972 30.8101C153.854 29.7332 156.014 29.1433 158.228 29.1021C163.533 29.1021 167.239 32.6261 167.239 37.6681C167.239 41.1 165.759 43.8061 162.959 45.496C161.613 46.2581 159.276 47.08 157.348 47.08Z" fill="black"/>
<path d="M133.196 30.7299C131.054 30.7299 129.668 32.2919 129.668 34.7099C129.668 37.1279 130.861 40.0019 134.217 40.0019C134.793 40.0019 135.837 39.7659 136.355 39.2399C137.134 38.5779 137.654 37.2099 137.654 35.7659C137.654 32.6119 135.991 30.7299 133.207 30.7299M132.93 47.4179C132.325 47.4118 131.728 47.5496 131.197 47.8179C129.501 48.8179 128.715 49.8179 128.715 50.9799C128.715 52.0679 129.172 52.9339 130.155 53.7019C131.347 54.6339 132.954 55.0879 135.066 55.0879C139.222 55.0879 141.085 53.0239 141.085 50.9799C141.085 49.5559 140.312 48.6019 138.72 48.0619C137.494 47.6479 135.445 47.4199 132.936 47.4199M133.214 57.2199C130.718 57.2199 128.921 56.7339 127.385 55.6419C125.89 54.5779 125.219 52.9979 125.219 51.9059C125.235 51.2022 125.526 50.5275 126.038 50.0059C126.471 49.5499 127.478 48.6959 129.807 47.2179C129.843 47.2038 129.873 47.1801 129.895 47.1498C129.917 47.1196 129.928 47.0842 129.928 47.0479C129.929 47.0075 129.914 46.9681 129.888 46.9361C129.861 46.9041 129.823 46.8815 129.781 46.8719C127.864 46.1939 127.285 45.0719 127.11 44.4719C127.11 44.4499 127.11 44.4159 127.09 44.3779C127.036 44.1419 126.984 43.9179 127.333 43.6879C127.601 43.5119 128.03 43.2759 128.49 43.0259C129.138 42.6946 129.76 42.321 130.35 41.9079C130.382 41.8764 130.405 41.8386 130.419 41.7974C130.432 41.7563 130.436 41.7128 130.428 41.6703C130.42 41.6278 130.403 41.5875 130.376 41.5524C130.349 41.5174 130.313 41.4885 130.272 41.4679C127.435 40.5879 126.005 38.6419 126.005 35.6679C125.996 34.7406 126.23 33.8249 126.686 32.9987C127.143 32.1725 127.808 31.4601 128.626 30.9219C129.768 30.0879 132.633 29.0859 134.49 29.0859H134.598C136.506 29.1279 137.583 29.4979 139.073 30.0059C139.921 30.289 140.819 30.4206 141.72 30.3939C143.299 30.3939 143.99 29.9319 144.583 29.3939C144.68 29.6363 144.731 29.8919 144.735 30.1499C144.771 30.7649 144.59 31.3741 144.22 31.8859C143.897 32.2999 143.137 32.5999 142.441 32.5999C142.37 32.5999 142.3 32.5999 142.225 32.5899C141.859 32.5662 141.496 32.5106 141.142 32.4239L140.964 32.4819C140.908 32.5579 140.944 32.6419 140.99 32.7499C141.001 32.7711 141.01 32.7932 141.016 32.8159C141.143 33.3497 141.229 33.891 141.274 34.4359C141.274 37.5459 139.946 38.8999 138.51 39.9039C137.121 40.8659 135.472 41.4555 133.744 41.6079C133.708 41.6079 133.528 41.6219 133.19 41.6499C132.973 41.6679 132.692 41.6919 132.651 41.6919H132.609C132.297 41.7719 131.483 42.1299 131.483 42.7959C131.483 43.3479 131.851 44.0339 133.612 44.1579L134.752 44.2319C137.074 44.3819 139.974 44.5679 141.339 44.9939C142.244 45.2878 143.026 45.8378 143.573 46.5657C144.12 47.2935 144.405 48.1621 144.386 49.0479C144.386 51.8379 142.238 54.4619 138.64 56.0659C136.943 56.8142 135.085 57.1991 133.205 57.1919" fill="black"/>
<path d="M122.57 45.2119C121.552 45.0859 120.809 44.9579 119.931 44.5779C119.759 44.4132 119.646 44.2038 119.606 43.9779C119.513 42.6679 119.513 38.8659 119.513 36.3779C119.513 34.3479 119.145 32.5779 118.214 31.3079C117.102 29.8699 115.53 29.0259 113.494 29.0259C111.689 29.0259 109.283 30.1659 107.294 31.7299C107.247 31.7719 106.941 32.0399 106.948 31.6239C106.954 31.2079 107.024 30.3639 107.067 29.8239C107.086 29.6804 107.069 29.5348 107.016 29.3986C106.964 29.2625 106.877 29.1396 106.764 29.0399C105.464 29.6399 101.819 30.4399 100.469 30.5619C99.4857 30.7379 99.2366 31.6119 100.287 31.9139H100.302C101.143 32.128 101.946 32.4541 102.685 32.8819C103.101 33.1779 103.055 33.5999 103.055 33.9379C103.101 36.7679 103.101 41.1199 102.962 43.4859C102.917 44.4159 102.637 44.7539 101.897 44.9239L101.966 44.9019C101.402 45.0324 100.83 45.1313 100.253 45.1979C100.021 45.4079 100.021 46.6339 100.253 46.8879C100.716 46.8879 103.068 46.7619 105.018 46.7619C107.699 46.7619 109.088 46.8879 109.783 46.8879C110.063 46.5919 110.154 45.4519 109.97 45.1979C109.329 45.1711 108.693 45.086 108.07 44.9439C107.331 44.7759 107.145 44.4359 107.099 43.6779C107.009 41.6899 107.009 37.4659 107.009 34.5919C107.009 33.7919 107.238 33.4099 107.515 33.1919C108.44 32.4319 109.97 31.9259 111.31 31.9259C112.61 31.9259 113.476 32.3059 114.126 32.8119C114.883 33.4217 115.358 34.2765 115.452 35.1999C115.636 36.7999 115.588 40.0179 115.588 42.7999C115.588 44.3219 115.452 44.7039 114.85 44.8719C114.572 44.9979 113.832 45.1259 112.952 45.2099C112.675 45.4639 112.766 46.6459 112.952 46.8999C114.154 46.8999 115.552 46.7739 117.579 46.7739C120.124 46.7739 121.744 46.8999 122.392 46.8999C122.669 46.6039 122.762 45.4999 122.578 45.2099" fill="black"/>
</svg>
