<svg width="137" height="142" viewBox="0 0 137 142" fill="none" xmlns="http://www.w3.org/2000/svg">
<path fill-rule="evenodd" clip-rule="evenodd" d="M80.6469 0.0336852C79.6603 0.0336852 78.7383 0.252639 77.8973 0.538963C79.7007 1.80216 80.6873 3.44431 81.1887 5.32226C81.2211 5.5749 81.2939 5.76017 81.3262 6.02123C81.3586 6.28229 81.4071 6.45914 81.4071 6.69494C81.5527 9.93714 80.5984 10.3414 79.9191 12.253C78.892 14.7204 79.175 17.3731 80.4043 19.4953C80.5168 19.7794 80.6578 20.0504 80.8248 20.3038C79.4824 10.9898 86.9468 9.58344 88.3216 6.67809C88.4268 4.13486 86.413 2.44218 84.8199 1.2632C83.2995 0.303167 81.9085 0 80.6469 0V0.0336852ZM91.8881 2.13901C91.7425 2.98114 91.8557 2.76219 91.8072 3.20852L91.7263 4.16854L91.4837 5.05278C91.4028 5.34753 91.3058 5.64227 91.2006 5.93702L90.8125 6.77915C90.7073 6.93073 90.6346 7.07389 90.5294 7.21706L90.3192 7.55391L89.7854 8.28656C89.5751 8.50552 89.3972 8.76657 89.1384 8.96027C88.8796 9.15396 88.7179 9.39817 88.4672 9.58344C87.7232 10.1729 86.874 10.6108 86.0976 11.1666C85.855 11.3519 85.6124 11.5035 85.3941 11.7225C85.1547 11.8988 84.9301 12.096 84.7228 12.3119C84.4802 12.5309 84.3023 12.7499 84.0759 13.0109C83.8494 13.272 83.6877 13.4909 83.5421 13.7436L83.0569 14.5183L82.6687 15.3605L82.3857 16.2026L82.143 17.1289C82.1107 17.2805 82.1107 17.4658 82.0622 17.6089C82.0136 17.7521 82.0298 17.9037 81.9813 18.0468L81.9489 18.9732C81.9489 19.1921 81.9489 19.4111 81.9813 19.6469C81.9813 19.9416 82.0136 20.2364 82.0864 20.5732C82.1592 20.9101 82.1916 21.1627 82.2643 21.4575L82.5474 22.3417C82.6283 22.527 82.7253 22.7123 82.79 22.847L74.6543 19.5627L70.5541 18.4679L68.3221 17.9121C66.1934 17.4703 64.045 17.1386 61.8847 16.9184C61.8038 16.9184 61.7796 16.8847 61.7068 16.8847L55.3745 16.5479L50.7406 16.7331C48.5813 16.8847 46.4221 17.171 44.2709 17.5416L42.6777 17.8363L39.4914 18.569L37.8982 19.0069L36.3778 19.7058L35.2133 20.2617C35.1324 20.2953 35.0677 20.2953 35.0354 20.3459L34.0487 20.8511C33.9436 20.8848 33.8708 20.9354 33.8061 20.9606L32.7062 21.5501C32.4636 21.6596 32.221 21.8027 32.0027 21.9206C31.8975 22.0049 31.7601 22.0638 31.6792 22.1059L30.7572 22.6617C30.4644 22.8302 30.1809 23.0158 29.9081 23.2175L29.2045 23.7228L28.4281 24.3123L27.8297 24.8176C27.7488 24.8513 27.6841 24.9271 27.6194 24.9692L27.0857 25.4492C27.0533 25.5334 26.9805 25.5587 26.9401 25.6008L26.2931 26.2239L25.5896 26.9229L24.9911 27.5966C24.9102 27.6808 24.8132 27.7482 24.7485 27.8156C24.5585 28.0464 24.3588 28.2683 24.15 28.4808C24.1177 28.5651 24.0449 28.5903 24.0045 28.6661L23.1958 29.5503L21.2872 31.462C20.6402 32.0515 19.9771 32.6073 19.3058 33.0789L17.187 34.4768C16.4834 34.881 15.7313 35.2516 14.9549 35.5716C14.2034 35.9045 13.4369 36.1996 12.6582 36.4558C11.1702 36.7927 9.64977 37.4158 8.33965 37.5253C8.0566 37.5253 7.74121 37.6095 7.45007 37.6348L6.56048 37.8538L5.71133 38.1906C5.42179 38.3101 5.13837 38.445 4.86218 38.5948C4.61956 38.7801 4.32843 38.9317 4.08581 39.1001C3.8432 39.2685 3.60058 39.5043 3.38223 39.7233C3.16387 39.9422 2.897 40.1612 2.67865 40.397L2.0802 41.1296C1.90228 41.4244 1.69201 41.6854 1.54644 41.9718C1.36136 42.2417 1.19643 42.5261 1.05313 42.8223L0.664944 43.7824L0.341458 44.7424L0.16354 45.6266C0.0584072 46.0645 0.0584072 46.5109 0.0179715 46.7214C-0.0224643 46.9319 0.0179715 47.2098 0.0179715 47.4709C0.0111013 47.6316 0.0219551 47.7927 0.0503201 47.9509C0.0826687 48.2035 0.131192 48.4309 0.195889 48.6499L0.438504 49.3236C0.543637 49.5762 0.681118 49.8036 0.826687 50.0225L1.28765 50.6962L1.8861 51.2857C2.09341 51.5017 2.31796 51.6989 2.55734 51.8752C3.40649 52.65 3.60867 52.9026 4.71661 53.4921C4.89453 53.6016 5.07244 53.6774 5.28271 53.7869C5.38784 53.8963 5.38784 53.93 5.42828 54.0058C5.46063 54.3006 5.53341 54.5953 5.6062 54.89C5.67373 55.1934 5.7685 55.4894 5.88925 55.7743L6.1723 56.448C6.20465 56.5322 6.25317 56.5996 6.27743 56.6333L6.69796 57.4417L7.23171 58.2165L7.83016 58.9154C8.04043 59.1344 8.2507 59.3197 8.5014 59.5386L9.20498 60.0944C9.44759 60.2797 9.69021 60.4313 9.98135 60.5744C10.243 60.7313 10.5161 60.8665 10.7981 60.9786C11.0084 61.0881 11.2591 61.1639 11.5017 61.2313C11.7443 61.2987 11.9627 61.3829 12.1002 61.4166C11.995 63.404 11.9546 65.2904 12.2457 65.9472C12.5692 66.6799 14.122 64.4314 15.6747 61.8629C15.4644 64.4061 15.3189 67.3873 15.6747 68.2631C16.0305 69.1389 18.1817 66.3093 20.0256 63.1429C45.0958 57.1049 67.9824 75.1517 70.3843 100.635C69.9233 96.6597 65.2247 94.4449 63.0654 94.9923C62.0141 97.7208 60.2026 101.224 57.2993 103.388C57.5419 100.946 57.4368 98.4534 56.9435 96.0197C56.1523 99.4099 54.656 102.578 52.5602 105.3C49.2041 105.553 45.8479 103.868 44.0687 101.325C43.9231 101.216 43.8908 100.988 43.7857 100.845L43.5026 100.07C43.3975 99.8177 43.3247 99.565 43.2923 99.2956C43.26 99.0261 43.26 98.7903 43.26 98.4871V97.9313C43.2923 97.6787 43.3651 97.426 43.4379 97.1566L43.6805 96.3818C43.8261 96.1292 43.9231 95.8765 44.1011 95.607C44.6995 93.9228 44.6995 92.4069 43.6158 91.5648C43.4056 91.4132 43.1953 91.3122 42.9446 91.1943C42.799 91.1606 42.6211 91.0848 42.4836 91.0427L42.2006 90.9332L41.4566 90.7479C41.2147 90.6751 40.9643 90.6382 40.7125 90.6385C40.4557 90.5949 40.1963 90.5696 39.9362 90.5627C39.7583 90.5627 39.5803 90.5964 39.4024 90.5964C39.1399 90.5941 38.8785 90.631 38.6261 90.7058L37.882 90.849L37.138 91.1016L36.4344 91.4385L35.7632 91.809C27.5143 97.4092 32.4475 110.504 38.0599 114.311C35.9411 114.715 33.7738 115.195 33.1834 115.675C34.6391 116.702 36.2242 117.528 37.8901 118.218L43.6158 119.902C46.5515 120.576 49.5194 120.787 52.5279 120.601C60.1697 120.019 67.3916 116.737 72.9989 111.299C78.6062 105.862 82.2629 98.5935 83.3642 90.6974L83.5745 91.6574L83.8979 93.7207L84.0435 94.7144L84.1244 95.8092L84.2053 97.0218V97.6113C84.2053 97.7966 84.2376 98.0155 84.2376 98.2008C84.2376 98.3861 84.2053 98.6387 84.2053 98.8745V99.3798C84.2053 99.6324 84.1729 99.8598 84.1729 100.112C84.1729 100.256 84.1729 100.407 84.1406 100.592L84.1082 101.401C84.0759 101.51 84.0759 101.62 84.0759 101.738L83.9707 102.58C83.9707 102.689 83.9707 102.799 83.9384 102.917L83.8009 103.986V104.07L83.5906 105.098L83.3804 106.193L83.0973 107.338L82.8143 108.483L82.4584 109.662L81.6821 111.801L81.2615 112.871L80.7763 113.898C80.744 114.008 80.6954 114.083 80.6712 114.151C78.3016 119.086 74.905 123.33 70.6593 126.631C70.3762 126.816 70.0932 127.035 69.8101 127.254C69.7292 127.339 69.6322 127.364 69.5675 127.44L68.7911 127.995L68.8963 128.214H68.9286L70.4167 127.995H70.449L73.1986 127.49C73.4413 127.456 73.7324 127.381 73.975 127.305L74.4602 127.195L75.2043 127.052L75.8512 126.867C79.3853 125.983 82.8062 124.762 86.1057 123.33C80.4852 131.33 72.9479 137.764 64.141 142C68.2089 141.705 72.2767 141.006 76.1909 139.827C90.4405 135.448 102.434 125.469 109.615 112.02C108.159 120.547 104.911 128.633 100.105 135.701C103.534 133.343 106.679 130.623 109.55 127.532C117.466 118.926 122.661 108.002 124.439 96.2302C125.652 102.041 125.992 108.054 125.466 113.982C150.997 76.8949 127.585 38.4432 117.783 28.3208C117.751 28.2366 117.702 28.2114 117.702 28.1356C117.621 28.5735 117.597 29.0198 117.565 29.4577C117.46 30.2998 117.355 31.1167 117.209 31.9252C117.063 32.7336 116.821 33.542 116.61 34.3673C116.4 35.1926 116.077 35.9505 115.761 36.7253C115.446 37.5001 115.09 38.2411 114.71 38.9738C114.32 39.6941 113.896 40.3939 113.44 41.0707C112.979 41.7697 112.486 42.4349 111.985 43.0581C111.457 43.6991 110.901 44.3146 110.319 44.9024C109.963 45.2392 109.647 45.5256 109.292 45.8287L108.483 46.5614C107.851 47.0831 107.19 47.564 106.502 48.0014C105.826 48.4551 105.13 48.8738 104.415 49.2562C103.671 49.6267 102.927 49.9552 102.183 50.2836C101.43 50.5804 100.663 50.8389 99.8863 51.0584C99.1099 51.2773 98.2931 51.4626 97.5167 51.6142C96.7403 51.7657 95.8993 51.8331 95.1148 51.9089C94.5487 51.9426 93.9826 51.9931 93.4974 51.9931C92.6887 51.9931 91.88 51.9089 91.0955 51.8415C90.3111 51.7742 89.4781 51.6563 88.6855 51.471C87.883 51.3198 87.0913 51.1116 86.316 50.8478H86.2837C87.06 50.7636 87.8364 50.6962 88.6289 50.5531C89.4215 50.4099 90.2221 50.2162 90.9985 49.9973C91.7748 49.7783 92.5512 49.5173 93.2952 49.2225C94.0392 48.9278 94.8156 48.5488 95.5273 48.1951C96.2521 47.8271 96.9592 47.4224 97.6461 46.9824C98.3173 46.5024 98.9886 46.0224 99.6275 45.5087C100.261 44.9953 100.863 44.4412 101.431 43.8497C102.029 43.2939 102.563 42.6707 103.097 42.0476C103.631 41.4244 104.124 40.7254 104.585 40.0601C104.666 39.9507 104.73 39.8075 104.795 39.6896L105.822 38.0053C106.21 37.2727 106.566 36.5316 106.874 35.7569C107.181 34.9821 107.472 34.2073 107.723 33.3989C107.973 32.5904 108.143 31.8157 108.321 31.0072C108.499 30.1988 108.604 29.3482 108.677 28.5398C108.75 27.7313 108.814 26.8555 108.814 26.0387C108.814 25.4492 108.782 24.8597 108.734 24.3544C108.653 23.5123 108.556 22.6954 108.451 21.887C108.31 21.0562 108.132 20.2328 107.917 19.4195C107.674 18.6448 107.432 17.8363 107.14 17.0616C106.849 16.2868 106.493 15.512 106.154 14.7878C105.814 14.0636 105.377 13.3141 104.941 12.6151C104.504 11.9161 104.019 11.2509 103.525 10.594L101.908 8.71605C101.609 8.40089 101.302 8.09479 100.986 7.79813C99.4015 6.5156 97.7607 5.31007 96.0691 4.18539C95.8265 4.04223 95.6081 3.93275 95.3655 3.81485C94.201 3.04009 93.1011 2.63587 92.0094 2.26533L91.8881 2.13901Z" fill="#EA2845"/>
</svg>
