<svg width="181" height="112" viewBox="0 0 181 112" fill="none" xmlns="http://www.w3.org/2000/svg">
<path d="M46.6646 29.4712H80.6908V32.2401H49.7836V53.0796H78.8477V55.8485H49.7836V78.7282H81.0453V81.4971H46.6646V29.4712ZM83.739 29.4712H87.3543L103.375 52.3509L119.75 29.4712L142.023 0.408691L105.431 54.7555L124.287 81.4971H120.53L103.375 57.16L86.1492 81.4971H82.463L101.461 54.7555L83.739 29.4712ZM125.634 32.2401V29.4712H164.41V32.2401H146.546V81.4971H143.427V32.2401H125.634Z" fill="black"/>
<path d="M0.375 29.1611H4.27384L58.0366 111.529L35.819 81.187L3.63585 33.0959L3.49407 81.187H0.375V29.1611Z" fill="black"/>
<path d="M160.374 77.5824C161.019 77.5824 161.489 77.0769 161.489 76.4236C161.489 75.7703 161.019 75.2648 160.374 75.2648C159.737 75.2648 159.259 75.7703 159.259 76.4236C159.259 77.0769 159.737 77.5824 160.374 77.5824ZM163.439 74.5338C163.439 76.4625 164.797 77.7224 166.777 77.7224C168.886 77.7224 170.16 76.4236 170.16 74.1682V66.2278H168.461V74.1605C168.461 75.4126 167.846 76.0814 166.762 76.0814C165.791 76.0814 165.131 75.4593 165.108 74.5338H163.439ZM172.383 74.4327C172.504 76.4392 174.136 77.7224 176.563 77.7224C179.158 77.7224 180.781 76.377 180.781 74.2305C180.781 72.5428 179.856 71.6096 177.61 71.0729L176.404 70.7696C174.978 70.4274 174.401 69.9686 174.401 69.1675C174.401 68.1565 175.296 67.4954 176.639 67.4954C177.914 67.4954 178.794 68.1409 178.953 69.1753H180.607C180.508 67.2855 178.885 65.9556 176.662 65.9556C174.272 65.9556 172.679 67.2855 172.679 69.2842C172.679 70.9329 173.582 71.9129 175.562 72.3873L176.973 72.7372C178.422 73.0872 179.059 73.6005 179.059 74.456C179.059 75.4515 178.058 76.1747 176.692 76.1747C175.228 76.1747 174.211 75.4981 174.067 74.4327H172.383Z" fill="black"/>
</svg>
