<svg width="184" height="171" viewBox="0 0 184 171" fill="none" xmlns="http://www.w3.org/2000/svg">
<path d="M75.5425 170.742C73.2831 170.742 71.0392 170.145 69.0584 168.996L48.4189 156.688C45.3362 154.952 46.8404 154.337 47.8572 153.983C51.9674 152.534 52.8015 152.206 57.1888 149.697C57.65 149.432 58.2535 149.525 58.7255 149.806L74.5815 159.284C75.1541 159.595 75.9666 159.595 76.4974 159.284L138.321 123.337C138.894 123.01 139.265 122.339 139.265 121.654V49.792C139.265 49.075 138.894 48.4358 138.309 48.0773L76.5098 12.1621C75.9372 11.8192 75.1789 11.8192 74.6063 12.1621L12.8194 48.0773C12.2205 48.4203 11.8399 49.0905 11.8399 49.7764V121.638C11.8399 122.324 12.2113 122.979 12.7993 123.306L29.7293 133.158C38.9217 137.787 44.5393 132.331 44.5393 126.844V55.9182C44.5393 54.9049 45.3285 54.1255 46.3344 54.1255H54.1649C55.1398 54.1255 55.9446 54.9049 55.9446 55.9182V126.876C55.9446 139.221 49.2592 146.314 37.6372 146.314C34.0624 146.314 31.2459 146.314 23.3844 142.417L7.1663 133.002C3.15819 130.664 0.682129 126.299 0.682129 121.638V49.7764C0.682129 45.1 3.15819 40.7353 7.1663 38.4282L69.0522 2.46627C72.9674 0.237156 78.1671 0.237156 82.0515 2.46627L143.86 38.4438C147.853 40.7665 150.344 45.1156 150.344 49.792V121.654C150.344 126.314 147.853 130.664 143.86 133.002L82.0515 168.964C80.0706 170.117 77.8267 170.71 75.5364 170.71" fill="#689F63"/>
<path d="M94.6391 121.225C67.5882 121.225 61.9165 108.717 61.9165 98.226C61.9165 97.2284 62.715 96.4334 63.707 96.4334H71.6923C72.5744 96.4334 73.3172 97.0803 73.4565 97.9579C74.6635 106.154 78.2538 110.288 94.6112 110.288C107.641 110.288 113.182 107.323 113.182 100.363C113.182 96.357 111.603 93.3796 91.3614 91.3843C74.4314 89.7008 63.9701 85.9441 63.9701 72.3044C63.9701 59.7403 74.4933 52.258 92.1197 52.258C111.913 52.258 121.724 59.1792 122.962 74.0503C123.009 74.5647 122.823 75.0635 122.482 75.4376C122.142 75.7962 121.662 76.0144 121.167 76.0144H113.135C112.3 76.0144 111.572 75.4221 111.402 74.6115C109.468 65.9912 104.794 63.2321 92.0888 63.2321C77.8669 63.2321 76.2111 68.2203 76.2111 71.9615C76.2111 76.4976 78.161 77.8226 97.3504 80.3791C116.354 82.92 125.376 86.5052 125.376 99.9579C125.376 113.52 114.141 121.298 94.5494 121.298M169.852 45.0874H171.926C173.628 45.0874 173.953 43.8871 173.953 43.1857C173.953 41.3463 172.7 41.3463 172.003 41.3463H169.868L169.852 45.0874ZM167.33 39.1951H171.926C173.505 39.1951 176.6 39.1951 176.6 42.7492C176.6 45.2277 175.021 45.7421 174.077 46.0539C175.919 46.1786 176.042 47.3945 176.29 49.1092C176.414 50.1848 176.615 52.0398 176.986 52.6633H174.154C174.077 52.0398 173.644 48.6104 173.644 48.4233C173.458 47.6595 173.195 47.2854 172.251 47.2854H169.914V52.6789H167.33V39.1951ZM161.805 45.898C161.805 51.4786 166.278 55.9992 171.771 55.9992C177.311 55.9992 181.784 51.3851 181.784 45.898C181.784 40.3019 177.25 35.8592 171.756 35.8592C166.339 35.8592 161.79 40.2395 161.79 45.8824M183.703 45.9292C183.703 52.5386 178.333 57.9321 171.787 57.9321C165.287 57.9321 159.871 52.6009 159.871 45.9292C159.871 39.1327 165.411 33.9263 171.787 33.9263C178.209 33.9263 183.687 39.1483 183.687 45.9292" fill="#689F63"/>
</svg>
