<svg width="168" height="160" viewBox="0 0 168 160" fill="none" xmlns="http://www.w3.org/2000/svg">
<path d="M83.5 94C92.6127 94 100 86.6127 100 77.5C100 68.3873 92.6127 61 83.5 61C74.3873 61 67 68.3873 67 77.5C67 86.6127 74.3873 94 83.5 94Z" fill="#61DAFB"/>
<path d="M84.0418 108.575C128.806 108.575 165.094 95.6776 165.094 79.7675C165.094 63.8574 128.806 50.9597 84.0418 50.9597C39.278 50.9597 2.98975 63.8574 2.98975 79.7675C2.98975 95.6776 39.278 108.575 84.0418 108.575Z" stroke="#61DAFB" stroke-width="5"/>
<path d="M57.2423 94.172C79.6243 130.259 109.768 153.064 124.569 145.109C139.371 137.154 133.226 101.451 110.844 65.3642C88.4625 29.2775 58.3191 6.47228 43.5173 14.4273C28.7155 22.3824 34.8604 58.0853 57.2423 94.172Z" stroke="#61DAFB" stroke-width="5"/>
<path d="M57.2425 65.3647C34.8606 101.451 28.7157 137.154 43.5175 145.109C58.3193 153.064 88.4626 130.259 110.845 94.1725C133.226 58.0858 139.371 22.3829 124.57 14.4279C109.768 6.47284 79.6244 29.278 57.2425 65.3647Z" stroke="#61DAFB" stroke-width="5"/>
</svg>
