<svg width="183" height="170" viewBox="0 0 183 170" fill="none" xmlns="http://www.w3.org/2000/svg">
<path d="M157.577 97.7264C151.193 97.7678 145.644 99.6724 140.998 102.488C139.293 98.306 137.589 94.5796 137.288 91.8469C136.954 88.6587 136.553 86.7127 136.954 82.9034C137.355 79.0942 139.16 73.6701 139.126 73.2561C139.093 72.842 138.725 70.896 135.048 70.8546C131.372 70.8132 128.196 71.7241 127.828 72.9249C127.461 74.1256 126.759 76.8583 126.291 79.6738C125.656 83.8143 118.937 98.5958 115.093 106.339C113.857 103.316 112.787 100.666 112.553 98.5545C112.219 95.3663 111.818 93.4203 112.219 89.611C112.62 85.8018 114.425 80.3777 114.391 79.9637C114.358 79.5496 113.99 77.6036 110.313 77.5622C106.637 77.5208 103.461 78.4317 103.093 79.6324C102.726 80.8332 102.325 83.6487 101.556 86.3814C100.787 89.1142 91.8625 113.791 89.5227 120.168C88.3194 123.439 87.2832 126.047 86.5478 127.828C86.5478 127.828 86.5144 127.952 86.4141 128.159C85.779 129.691 85.4113 130.519 85.4113 130.519C85.4113 130.519 85.4113 130.519 85.4113 130.56C84.9099 131.678 84.3751 132.713 84.1077 132.713C83.9072 132.713 83.5395 129.732 84.1746 125.675C85.5116 117.104 88.687 103.771 88.6536 103.316C88.6536 103.068 89.2553 100.749 86.5812 99.5482C83.974 98.3474 83.0381 100.335 82.8041 100.335C82.5701 100.335 82.403 101.039 82.403 101.039C82.403 101.039 85.311 86.0502 76.8543 86.0502C71.5731 86.0502 64.2863 93.2132 60.6763 99.6724C58.4034 101.204 53.5567 104.475 48.3757 107.995C46.4036 109.361 44.3646 110.727 42.4594 112.011C42.3256 111.845 42.1919 111.638 42.0582 111.473C31.83 97.9334 12.9111 88.3689 13.7133 70.1921C14.0141 63.5674 15.8525 46.1773 50.047 25.0609C78.1914 7.87784 100.587 12.6394 104.464 23.1976C110.013 38.269 92.4641 66.2587 63.3838 70.3164C52.2865 71.8483 46.4704 66.5485 44.9997 64.5611C43.4621 62.4908 43.2281 62.3666 42.6599 62.7807C41.724 63.4017 42.3256 65.265 42.6599 66.3415C43.529 69.157 47.1055 74.1256 53.1556 76.5685C58.5037 78.7215 71.5062 79.9223 87.2497 72.3866C104.865 63.94 118.636 40.4635 114.592 20.7962C110.547 0.839017 83.8069 -5.74435 58.5037 5.39355C43.4621 12.0183 27.1504 22.4523 15.418 36.0331C1.47949 52.181 -0.726601 66.2173 0.175892 72.0968C3.41818 92.9648 26.649 106.546 35.9413 116.607C35.4734 116.938 35.0389 117.228 34.6712 117.476C30.025 120.333 12.3094 131.803 7.89722 143.934C2.88337 157.681 8.69944 167.535 12.5434 168.86C24.4763 172.959 36.7436 165.589 43.3284 153.416C49.9133 141.243 49.1111 125.426 46.0693 118.18C46.0359 118.098 46.0025 118.015 45.9356 117.932C47.1389 117.062 48.3757 116.152 49.579 115.282C51.9522 113.543 54.292 111.928 56.2976 110.603C55.1611 114.454 54.3255 119.05 53.9244 125.675C53.423 133.459 55.9967 143.562 59.3727 147.536C60.8769 149.275 62.6484 149.317 63.7849 149.317C67.7291 149.317 69.5007 145.259 71.4728 140.456C73.8795 134.577 76.0521 127.745 76.0521 127.745C76.0521 127.745 73.3447 146.211 80.6983 146.211C83.3724 146.211 86.0798 141.905 87.2832 139.711C87.2832 139.752 87.2832 139.752 87.2832 139.752C87.2832 139.752 87.35 139.628 87.4837 139.338C87.7511 138.8 87.9182 138.469 87.9182 138.469C87.9182 138.469 87.9182 138.427 87.9182 138.386C88.9879 136.067 91.3945 130.809 94.9711 122.072C99.5838 110.81 104.029 96.7327 104.029 96.7327C104.029 96.7327 104.431 100.169 105.801 105.883C106.603 109.237 108.274 112.922 109.611 116.483C108.542 118.346 107.873 119.381 107.873 119.381C107.873 119.381 107.873 119.381 107.907 119.422C107.038 120.83 106.102 122.362 105.066 123.853C101.422 129.235 97.0769 135.405 96.4752 137.185C95.7733 139.297 95.9404 140.829 97.2774 142.071C98.2468 142.982 99.9849 143.106 101.756 142.982C105.032 142.692 107.339 141.698 108.475 141.077C110.247 140.291 112.319 139.09 114.258 137.309C117.834 134.038 120.007 129.36 119.806 123.19C119.706 119.795 118.804 116.4 117.701 113.212C118.035 112.632 118.336 112.052 118.67 111.473C124.319 101.246 128.698 90.0251 128.698 90.0251C128.698 90.0251 129.099 93.4617 130.469 99.1755C131.138 102.074 132.508 105.221 133.711 108.285C128.397 113.626 125.121 119.837 123.951 123.894C121.845 131.43 123.483 134.825 126.592 135.612C127.996 135.984 130.001 135.156 131.472 134.37C133.344 133.624 135.55 132.341 137.656 130.436C141.232 127.165 144.675 122.611 144.474 116.441C144.374 113.626 143.773 110.852 142.937 108.16C147.449 105.842 153.265 104.558 160.686 105.635C176.597 107.953 179.739 120.251 179.137 125.426C178.535 130.602 175.193 133.417 174.09 134.287C172.987 135.156 172.619 135.446 172.719 136.067C172.853 136.978 173.388 136.937 174.324 136.771C175.627 136.481 182.68 132.589 182.981 123.066C183.482 110.893 174.123 97.6021 157.577 97.7264ZM34.8383 148.986C29.557 156.107 22.2034 158.799 19.028 156.521C15.6185 154.078 16.9556 143.562 23.4402 136.026C27.3844 131.43 32.4651 127.165 35.8411 124.557C36.6099 123.977 37.7463 123.149 39.1168 122.114C39.3508 121.948 39.4845 121.865 39.4845 121.865C39.7519 121.658 40.0193 121.451 40.2867 121.244C42.6599 132.01 40.387 141.491 34.8383 148.986ZM73.2778 116.607C71.4394 122.155 67.5954 136.357 65.2556 135.57C63.2501 134.908 62.0134 124.143 64.8545 113.502C66.2918 108.16 69.3336 101.784 71.1051 99.2997C73.9797 95.3249 77.1552 93.9999 77.924 95.6147C78.8933 97.7264 74.4143 113.129 73.2778 116.607ZM104.999 135.405C104.23 135.902 103.495 136.233 103.16 135.984C102.926 135.819 103.495 135.156 103.495 135.156C103.495 135.156 107.472 129.857 109.043 127.455C109.946 126.047 111.015 124.391 112.152 122.528C112.152 122.693 112.152 122.901 112.152 123.066C112.152 129.401 107.205 133.666 104.999 135.405ZM129.466 128.49C128.898 127.993 128.998 126.337 130.904 121.161C131.639 119.133 133.377 115.737 136.352 112.466C136.686 113.791 136.92 115.075 136.887 116.276C136.853 124.267 132.241 127.248 129.466 128.49Z" fill="#CD6799"/>
</svg>
