<svg width="231" height="128" viewBox="0 0 231 128" fill="none" xmlns="http://www.w3.org/2000/svg">
<path fill-rule="evenodd" clip-rule="evenodd" d="M218.89 110.219C218.89 113.561 221.532 115.814 224.487 115.814C227.442 115.814 230.083 113.561 230.083 110.219C230.083 106.878 227.442 104.625 224.487 104.625C221.532 104.625 218.89 106.878 218.89 110.219ZM228.829 110.219C228.829 112.756 226.89 114.65 224.485 114.65C222.053 114.65 220.14 112.756 220.14 110.219C220.14 107.683 222.051 105.788 224.485 105.788C226.888 105.788 228.829 107.683 228.829 110.219ZM225.993 113.413H227.246L225.411 110.609C226.396 110.504 227.141 110.026 227.141 108.862C227.141 107.564 226.319 107.028 224.739 107.028H222.246V113.414H223.321V110.654H224.32L225.992 113.414L225.993 113.413ZM223.321 109.756V107.922H224.559C225.2 107.922 225.977 108.041 225.977 108.788C225.977 109.683 225.276 109.758 224.469 109.758H223.321V109.756Z" fill="#E48E00"/>
<path d="M0 115.695H7.57997V83.7614L19.3145 111.61C20.6986 114.967 22.595 116.174 26.3114 116.174C30.0278 116.174 31.85 114.981 33.2364 111.61L44.972 83.7614V115.707H52.5531V83.8141C52.5531 80.7028 51.3847 79.198 48.9805 78.4211C43.2228 76.5027 39.3592 78.1621 37.6111 82.3106L26.0957 109.795L14.942 82.2986C13.2658 78.1501 9.33032 76.4907 3.5726 78.4091C1.16615 79.1872 0 80.692 0 83.8021V115.695ZM58.8535 89.694H66.4312V107.295C66.3604 108.252 66.7188 110.496 70.8711 110.565C72.9899 110.601 87.2219 110.565 87.3545 110.565V89.6064H94.9491C94.9828 89.6064 94.9412 118.183 94.9423 118.305C94.9839 125.353 86.7478 126.884 82.9528 127.003H59.0186V121.56L82.9955 121.558C87.8735 121.007 87.2983 118.421 87.2983 117.549V115.427H71.1879C63.6922 115.355 58.9198 111.862 58.8602 107.845C58.8546 107.486 59.022 89.8666 58.8557 89.6928L58.8535 89.694Z" fill="#00618A"/>
<path d="M100.792 115.695H122.585C125.136 115.695 127.615 115.125 129.584 114.139C132.865 112.532 134.468 110.353 134.468 107.501V101.59C134.468 99.2556 132.646 97.0782 129.076 95.6263C127.18 94.8469 124.848 94.4333 122.589 94.4333H113.404C110.344 94.4333 108.886 93.4477 108.522 91.2703C108.449 91.0113 108.449 90.7907 108.449 90.5437V86.8628C108.449 86.6554 108.449 86.4468 108.522 86.1878C108.886 84.5284 109.688 84.0608 112.384 83.7898C112.603 83.7898 112.894 83.7371 113.115 83.7371H134.761V78.3452H113.479C110.417 78.3452 108.814 78.5526 107.356 79.0191C102.833 80.5238 100.864 82.9218 100.864 87.0703V91.7895C100.864 95.42 104.729 98.5314 111.214 99.2568C111.944 99.3083 112.672 99.3599 113.4 99.3599H121.272C121.564 99.3599 121.856 99.3599 122.074 99.4127C124.478 99.6201 125.501 100.086 126.229 101.019C126.678 101.499 126.813 101.955 126.813 102.458V107.177C126.813 107.748 126.449 108.475 125.72 109.096C125.064 109.719 123.971 110.133 122.512 110.237C122.22 110.237 122.002 110.289 121.711 110.289H100.792V115.682V115.695ZM181.753 106.309C181.753 111.858 185.616 114.97 193.415 115.592C194.142 115.652 194.871 115.686 195.601 115.695H215.354V110.302H195.455C191.01 110.302 189.332 109.109 189.332 106.256V78.356H181.752V106.307L181.753 106.309ZM139.303 106.59V87.364C139.303 82.4793 142.517 79.5166 148.871 78.5814C149.549 78.4781 150.232 78.426 150.917 78.4255H165.305C166.014 78.426 166.722 78.4781 167.424 78.5814C173.778 79.5166 176.991 82.4781 176.991 87.364V106.59C176.991 110.552 175.626 112.673 172.48 114.056L179.947 121.25H171.146L165.105 115.43L159.024 115.841H150.917C149.529 115.841 148.069 115.633 146.461 115.165C141.63 113.762 139.303 111.06 139.303 106.59ZM147.486 106.11C147.486 106.37 147.559 106.629 147.632 106.942C148.081 109.177 150.041 110.424 153.024 110.424H159.911L153.586 104.33H162.387L167.892 109.645C168.909 109.067 169.577 108.182 169.802 107.047C169.875 106.788 169.875 106.527 169.875 106.267V87.8328C169.875 87.6254 169.875 87.3532 169.802 87.105C169.353 85.0272 167.391 83.8318 164.47 83.8318H153.038C149.667 83.8318 147.488 85.3905 147.488 87.8328V106.125L147.486 106.11Z" fill="#E48E00"/>
<path d="M222.023 69.4092C217.364 69.2749 213.803 69.7366 210.761 71.1058C209.896 71.4955 208.517 71.5051 208.376 72.6621C208.851 73.1933 208.926 73.987 209.303 74.6404C210.03 75.8958 211.258 77.5779 212.351 78.458C213.546 79.4208 214.777 80.4519 216.061 81.2876C218.342 82.772 220.888 83.6197 223.083 85.1052C224.377 85.9805 225.663 87.0835 226.925 88.0739C227.549 88.5631 227.97 89.3233 228.779 89.629V89.4875C228.352 88.9084 228.243 88.1123 227.852 87.5092L226.13 85.6711C224.445 83.2731 222.308 81.1905 220.035 79.4484C218.223 78.0599 214.166 76.1847 213.41 73.933L213.278 73.7915C214.563 73.6357 216.067 73.1405 217.255 72.8024C219.246 72.2329 221.027 72.3791 223.085 71.8132L225.868 70.9643V70.3984C224.828 69.2594 224.086 67.7522 222.953 66.7223C219.987 64.0246 216.748 61.3328 213.415 59.0847C211.565 57.8378 209.28 57.0297 207.32 55.9734C206.66 55.6185 205.502 55.4338 205.067 54.8415C204.038 53.4411 203.478 51.6642 202.683 50.0456C201.021 46.6284 199.387 42.8948 197.913 39.299C196.908 36.8471 196.25 34.4287 194.999 32.2286C188.983 21.6727 182.506 15.3012 172.476 9.04011C170.341 7.70923 167.772 7.18167 165.055 6.49465L160.683 6.21169C159.793 5.81603 158.867 4.65301 158.031 4.08948C154.708 1.84737 146.185 -3.02412 143.723 3.37009C142.169 7.41428 146.045 11.3602 147.433 13.4104C148.406 14.8492 149.653 16.4595 150.347 18.0769C150.804 19.1392 150.884 20.2051 151.275 21.3298C152.238 24.0874 153.076 27.1125 154.322 29.6723C154.951 30.9672 155.645 32.3317 156.442 33.4899C156.93 34.2009 157.767 34.5138 157.899 35.6121C157.081 36.8351 157.034 38.7295 156.573 40.2786C154.503 47.2471 155.283 55.9074 158.295 61.0655C159.22 62.6481 161.396 66.0437 164.39 64.7416C167.008 63.6025 166.412 60.0775 167.173 56.9649C167.342 56.2575 167.238 55.742 167.571 55.2684V55.4098L169.956 60.4995C171.72 63.533 174.854 66.7043 177.508 68.8445C178.884 69.9536 179.979 71.872 181.748 72.5206V72.3791H181.615C181.27 71.8036 180.731 71.5674 180.289 71.1082C179.252 70.0231 178.099 68.6743 177.241 67.4321C174.826 63.9335 172.694 60.1063 170.75 56.1196C169.822 54.2168 169.014 52.1174 168.234 50.181C167.933 49.4341 167.936 48.3058 167.307 47.9185C166.45 49.3382 165.187 50.4844 164.524 52.1606C163.463 54.8391 163.326 58.1052 162.934 61.4935C162.702 61.5822 162.805 61.5211 162.669 61.635C160.824 61.1602 160.175 59.1327 159.49 57.393C157.755 52.9927 157.434 45.9114 158.959 40.8493C159.353 39.54 161.139 35.4131 160.417 34.2033C160.072 32.9959 158.934 32.2849 158.297 31.3737C157.51 30.2346 156.722 28.7311 156.177 27.4146C154.757 23.9855 154.094 20.1368 152.6 16.6681C151.885 15.0111 150.678 13.3349 149.685 11.8721C148.587 10.2415 147.356 9.03771 146.506 7.07616C146.203 6.37475 145.791 5.2537 146.241 4.53071C146.284 4.32298 146.381 4.13269 146.522 3.98228C146.663 3.83187 146.842 3.72761 147.036 3.68182C147.805 3.04996 149.946 3.89165 150.746 4.24775C152.869 5.19015 154.644 6.087 156.444 7.35913C157.309 7.95862 158.182 9.15281 159.226 9.48134H160.417C162.282 9.93935 164.371 9.62522 166.113 10.1887C169.193 11.1875 171.952 12.7426 174.46 14.4308C182.097 19.5768 188.34 26.9027 192.612 35.6529C193.299 37.0593 193.596 38.4034 194.201 39.8949C195.422 42.8924 196.96 46.0014 198.176 48.9437C199.389 51.8812 200.569 54.8427 202.283 57.2863C203.184 58.5692 206.665 59.2598 208.246 59.972C209.354 60.472 211.17 60.9935 212.22 61.6686C214.226 62.9599 216.169 64.4982 218.051 65.913C218.991 66.6204 221.882 68.1707 222.026 69.4476L222.023 69.4092Z" fill="#00618A"/>
</svg>
