<svg width="137" height="142" viewBox="0 0 137 142" fill="none" xmlns="http://www.w3.org/2000/svg">
<path d="M123.621 0H13.3789C5.98994 0 0 6.20855 0 13.8672V128.133C0 135.791 5.98994 142 13.3789 142H123.621C131.01 142 137 135.791 137 128.133V13.8672C137 6.20855 131.01 0 123.621 0Z" fill="#3178C6"/>
<path fill-rule="evenodd" clip-rule="evenodd" d="M85.0381 119.659V134.332C87.535 135.555 90.4881 136.471 93.8975 137.083C97.3068 137.694 100.9 138 104.678 138C108.359 138 111.856 137.664 115.169 136.991C118.483 136.319 121.388 135.211 123.885 133.667C126.382 132.123 128.359 130.106 129.815 127.614C131.272 125.123 132 122.043 132 118.375C132 115.715 131.584 113.385 130.752 111.382C129.919 109.38 128.719 107.6 127.15 106.041C125.582 104.482 123.701 103.083 121.508 101.845C119.315 100.607 116.842 99.4375 114.089 98.3372C112.072 97.5423 110.264 96.7706 108.663 96.0217C107.062 95.2726 105.702 94.5084 104.581 93.7291C103.461 92.9494 102.597 92.124 101.989 91.2529C101.38 90.3815 101.076 89.3958 101.076 88.2952C101.076 87.2867 101.348 86.3772 101.893 85.567C102.437 84.7569 103.205 84.0616 104.197 83.4807C105.19 82.9001 106.406 82.449 107.847 82.128C109.287 81.8071 110.888 81.6468 112.649 81.6468C113.929 81.6468 115.281 81.7385 116.706 81.9217C118.131 82.1052 119.563 82.388 121.004 82.7699C122.444 83.1521 123.845 83.6337 125.206 84.2143C126.566 84.7953 127.822 85.4677 128.975 86.2321V72.5219C126.638 71.666 124.085 71.0317 121.316 70.619C118.547 70.2063 115.37 70 111.784 70C108.135 70 104.678 70.3746 101.412 71.1235C98.1472 71.8723 95.2742 73.0415 92.7929 74.631C90.312 76.2208 88.3514 78.2459 86.9109 80.7068C85.4704 83.1674 84.75 86.1096 84.75 89.5333C84.75 93.9046 86.0705 97.6341 88.7116 100.722C91.3524 103.809 95.3619 106.423 100.74 108.562C102.853 109.388 104.822 110.198 106.646 110.993C108.471 111.787 110.048 112.613 111.376 113.469C112.705 114.325 113.753 115.257 114.521 116.266C115.29 117.274 115.674 118.421 115.674 119.705C115.674 120.652 115.434 121.531 114.953 122.341C114.473 123.151 113.745 123.854 112.769 124.45C111.792 125.047 110.576 125.513 109.119 125.849C107.663 126.185 105.958 126.353 104.005 126.353C100.676 126.353 97.3789 125.795 94.1135 124.68C90.8483 123.564 87.8231 121.89 85.0381 119.659ZM59.2166 83.5068H78.9205V71.4655H24V83.5068H43.6075V137.121H59.2166V83.5068Z" fill="white"/>
</svg>
