<svg width="77" height="81" viewBox="0 0 77 81" fill="none" xmlns="http://www.w3.org/2000/svg">
<rect width="77" height="81" rx="38.5" fill="#3B14F9"/>
<path d="M18.9854 23.5V61H11.3682V23.5H18.9854ZM17.9844 46.8643L16.0801 46.9131C16.0801 45.0576 16.3079 43.3568 16.7637 41.8105C17.2357 40.248 17.903 38.889 18.7656 37.7334C19.6283 36.5778 20.6618 35.6826 21.8662 35.0479C23.0869 34.4131 24.4297 34.0957 25.8945 34.0957C27.1966 34.0957 28.3848 34.2829 29.459 34.6572C30.5332 35.0316 31.4609 35.6257 32.2422 36.4395C33.0234 37.2533 33.6257 38.3193 34.0488 39.6377C34.472 40.9561 34.6836 42.5592 34.6836 44.4473V61H27.0176V44.3984C27.0176 43.2754 26.8548 42.3965 26.5293 41.7617C26.2201 41.127 25.7643 40.6794 25.1621 40.4189C24.5762 40.1585 23.86 40.0283 23.0137 40.0283C22.0208 40.0283 21.1989 40.2074 20.5479 40.5654C19.8968 40.9072 19.3841 41.3874 19.0098 42.0059C18.6354 42.6243 18.3669 43.3486 18.2041 44.1787C18.0576 45.0088 17.9844 45.904 17.9844 46.8643ZM47.1104 23.5V61H39.4932V23.5H47.1104ZM46.1094 46.8643L44.2051 46.9131C44.2051 45.0576 44.4329 43.3568 44.8887 41.8105C45.3607 40.248 46.028 38.889 46.8906 37.7334C47.7533 36.5778 48.7868 35.6826 49.9912 35.0479C51.2119 34.4131 52.5547 34.0957 54.0195 34.0957C55.3216 34.0957 56.5098 34.2829 57.584 34.6572C58.6582 35.0316 59.5859 35.6257 60.3672 36.4395C61.1484 37.2533 61.7507 38.3193 62.1738 39.6377C62.597 40.9561 62.8086 42.5592 62.8086 44.4473V61H55.1426V44.3984C55.1426 43.2754 54.9798 42.3965 54.6543 41.7617C54.3451 41.127 53.8893 40.6794 53.2871 40.4189C52.7012 40.1585 51.985 40.0283 51.1387 40.0283C50.1458 40.0283 49.3239 40.2074 48.6729 40.5654C48.0218 40.9072 47.5091 41.3874 47.1348 42.0059C46.7604 42.6243 46.4919 43.3486 46.3291 44.1787C46.1826 45.0088 46.1094 45.904 46.1094 46.8643Z" fill="white"/>
</svg>
