<svg width="80" height="80" viewBox="0 0 80 80" fill="none" xmlns="http://www.w3.org/2000/svg">
<path d="M0 5.67473C0 2.54151 2.63864 0 5.89375 0H73.8613C77.1163 0 79.7551 2.54151 79.7551 5.67473V73.544C79.7551 76.6783 77.1163 79.2187 73.8613 79.2187H5.89375C2.63864 79.2187 0 76.6783 0 73.544V5.67473Z" fill="#3B14F9"/>
<path fill-rule="evenodd" clip-rule="evenodd" d="M24.1764 66.3143V30.5427H12.1301V66.3143H24.1764ZM18.1531 25.6587C22.354 25.6587 24.9686 22.9118 24.9686 19.479C24.8903 15.969 22.354 13.2983 18.2328 13.2983C14.1122 13.2983 11.418 15.969 11.418 19.479C11.418 22.9118 14.0321 25.6587 18.0746 25.6587H18.1531Z" fill="white"/>
<path fill-rule="evenodd" clip-rule="evenodd" d="M30.8418 66.3142H42.888V46.3378C42.888 45.2687 42.9662 44.2007 43.2843 43.4364C44.1552 41.3003 46.1373 39.0881 49.4651 39.0881C53.8241 39.0881 55.5678 42.3684 55.5678 47.1772V66.3142H67.613V45.8033C67.613 34.8159 61.67 29.7031 53.7445 29.7031C47.2459 29.7031 44.393 33.2884 42.8079 35.7303H42.8883V30.5426H30.8421C31.0002 33.8992 30.8418 66.3142 30.8418 66.3142Z" fill="white"/>
</svg>
